# xmcd CD database file
#
# Track frame offsets:
#	150
#	14479
#	30958
#	53454
#	76769
#	93488
#	108318
#	125521
#	143080
#	161995
#	182025
#	204085
#
# Disc length: 2957 seconds
#
# Revision: 0
# Processed by: cddbd v1.5.2PL0 Copyright (c) Steve Scherf et al.
# Submitted via: CDex 1.70beta2
#
DISCID=8e0b8b0c
DTITLE=Del Barber - Love Songs for the Last 20
DYEAR=2010
DGENRE=Country
TTITLE0=As Far as I Can Tell
TTITLE1=Chicago
TTITLE2=Love Song for the Last 20
TTITLE3=Miles and Years
TTITLE4=Home to Manitoba
TTITLE5=Coming Home with the Summer
TTITLE6=Story I Can Believe
TTITLE7=If I Told You that I Loved You
TTITLE8=Songwriter's Lament
TTITLE9=62 Richmond
TTITLE10=Thunder Bay
TTITLE11=Katy Sparrow
EXTD=YEAR: 2010
EXTT0=
EXTT1=
EXTT2=
EXTT3=
EXTT4=
EXTT5=
EXTT6=
EXTT7=
EXTT8=
EXTT9=
EXTT10=
EXTT11=
PLAYORDER=
